<?xml version="1.0" encoding="utf-8"?>
<!-- Generator: Adobe Illustrator 24.2.1, SVG Export Plug-In . SVG Version: 6.00 Build 0)  -->
<svg version="1.1" id="Layer_1" xmlns="http://www.w3.org/2000/svg" xmlns:xlink="http://www.w3.org/1999/xlink" x="0px" y="0px"
	 viewBox="0 0 2436 1125" style="enable-background:new 0 0 2436 1125;" xml:space="preserve">
<style type="text/css">
	.st0{fill:none;stroke:#000000;stroke-miterlimit:10;}
	.st1{font-family:'MyriadPro-Regular';}
	.st2{font-size:36px;}
	.st3{fill:#F5BD18;stroke:#000000;stroke-width:0.5;stroke-miterlimit:10;}
	.st4{fill:#1841F5;stroke:#1841F5;stroke-width:0.5;stroke-miterlimit:10;}
	.st5{fill:#1841F5;stroke:#000000;stroke-width:0.5;stroke-miterlimit:10;}
	.st6{letter-spacing:-2;}
	.st7{font-size:55px;}
</style>
<g>
	<g>
		<line class="st0" x1="293.34" y1="1021.15" x2="2119.9" y2="1021.15"/>
		<g>
			<g>
				<line class="st0" x1="293.34" y1="1021.15" x2="293.34" y2="1000.92"/>
				<line class="st0" x1="902.19" y1="1021.15" x2="902.19" y2="1000.92"/>
				<line class="st0" x1="1511.04" y1="1021.15" x2="1511.04" y2="1000.92"/>
				<line class="st0" x1="2119.9" y1="1021.15" x2="2119.9" y2="1000.92"/>
			</g>
			<g>
			</g>
		</g>
	</g>
	<g>
		<g>
			<text transform="matrix(1 0 0 1 246.3315 1049.5957)" class="st1 st2">0</text>
			<text transform="matrix(1 0 0 1 227.8638 887.7764)" class="st1 st2">20</text>
			<text transform="matrix(1 0 0 1 227.8638 725.9561)" class="st1 st2">40</text>
			<text transform="matrix(1 0 0 1 227.8638 564.1362)" class="st1 st2">60</text>
			<text transform="matrix(1 0 0 1 227.8638 402.3164)" class="st1 st2">80</text>
			<text transform="matrix(1 0 0 1 209.3965 240.4961)" class="st1 st2">100</text>
		</g>
		<line class="st0" x1="293.34" y1="1021.15" x2="293.34" y2="212.05"/>
		<g>
			<g>
				<line class="st0" x1="293.34" y1="1021.15" x2="339" y2="1021.15"/>
				<line class="st0" x1="293.34" y1="859.33" x2="339" y2="859.33"/>
				<line class="st0" x1="293.34" y1="697.51" x2="339" y2="697.51"/>
				<line class="st0" x1="293.34" y1="535.69" x2="339" y2="535.69"/>
				<line class="st0" x1="293.34" y1="373.87" x2="339" y2="373.87"/>
				<line class="st0" x1="293.34" y1="212.05" x2="339" y2="212.05"/>
			</g>
			<g>
			</g>
		</g>
	</g>
	<g>
		<g>
			<rect x="839.98" y="132.6" class="st3" width="114.16" height="75.85"/>
			<g>
				<rect x="609.94" y="681.33" class="st3" width="219.19" height="339.82"/>
				<rect x="1218.79" y="212.05" class="st3" width="219.19" height="809.1"/>
				<rect x="1827.65" y="454.78" class="st3" width="219.19" height="566.37"/>
			</g>
		</g>
		<g>
			<rect x="293.34" y="132.6" class="st4" width="114.16" height="75.85"/>
			<g>
				<rect x="366.4" y="851.24" class="st5" width="219.19" height="169.91"/>
				<rect x="975.25" y="365.78" class="st4" width="219.19" height="655.37"/>
				<rect x="1584.11" y="616.6" class="st4" width="219.19" height="404.55"/>
			</g>
		</g>
	</g>
	<g>
		<g>
		</g>
		<g>
		</g>
	</g>
	<g>
		<g>
		</g>
		<text transform="matrix(1 0 0 1 975.6079 200.7695)"><tspan x="0" y="0" class="st1 st2">no </tspan><tspan x="47.38" y="0" class="st1 st2">M</tspan><tspan x="76.75" y="0" class="st1 st2">i</tspan><tspan x="85.17" y="0" class="st1 st2">g</tspan><tspan x="105.08" y="0" class="st1 st2">r</tspan><tspan x="116.67" y="0" class="st1 st2">a</tspan><tspan x="133.88" y="0" class="st1 st2">tion Back</tspan><tspan x="271.47" y="0" class="st1 st2">g</tspan><tspan x="291.38" y="0" class="st1 st2">r</tspan><tspan x="302.79" y="0" class="st1 st2">ound</tspan></text>
		<text transform="matrix(1 0 0 1 421.7686 198.9697)"><tspan x="0" y="0" class="st1 st2">with </tspan><tspan x="74.45" y="0" class="st1 st2">M</tspan><tspan x="103.82" y="0" class="st1 st2">i</tspan><tspan x="112.25" y="0" class="st1 st2">g</tspan><tspan x="132.15" y="0" class="st1 st2">r</tspan><tspan x="143.75" y="0" class="st1 st2">a</tspan><tspan x="160.95" y="0" class="st1 st2">tion Back</tspan><tspan x="298.54" y="0" class="st1 st2">g</tspan><tspan x="318.45" y="0" class="st1 st2">r</tspan><tspan x="329.86" y="0" class="st1 st2">ound</tspan></text>
	</g>
	<g>
		<text transform="matrix(1 0 0 1 1779.0381 1090.6826)"><tspan x="0" y="0" class="st1 st2 st6">T</tspan><tspan x="15.34" y="0" class="st1 st2">otal</tspan></text>
		<text transform="matrix(1 0 0 1 1139.8022 1090.6826)"><tspan x="0" y="0" class="st1 st2">3-6 </tspan><tspan x="55.62" y="0" class="st1 st2">y</tspan><tspan x="72.21" y="0" class="st1 st2">ears</tspan></text>
		<text transform="matrix(1 0 0 1 495.2026 1090.6826)"><tspan x="0" y="0" class="st1 st2">Under 3 </tspan><tspan x="127.11" y="0" class="st1 st2">y</tspan><tspan x="143.71" y="0" class="st1 st2">ears</tspan></text>
	</g>
</g>
<text transform="matrix(1 0 0 1 780.2544 75.5425)" class="st1 st7">Percentage of Children in Childcare</text>
</svg>
