<?xml version="1.0" encoding="utf-8"?>
<!-- Generator: Adobe Illustrator 24.2.1, SVG Export Plug-In . SVG Version: 6.00 Build 0)  -->
<svg version="1.1" id="Layer_1" xmlns="http://www.w3.org/2000/svg" xmlns:xlink="http://www.w3.org/1999/xlink" x="0px" y="0px"
	 viewBox="0 0 1366 768" style="enable-background:new 0 0 1366 768;" xml:space="preserve">
<style type="text/css">
	.st0{fill:none;stroke:#000000;stroke-miterlimit:10;}
	.st1{font-family:'MyriadPro-Regular';}
	.st2{font-size:32px;}
	.st3{fill:#F77F08;stroke:#F77F08;stroke-width:0.5;stroke-miterlimit:10;}
	.st4{fill:#A10C02;stroke:#A10C02;stroke-width:0.5;stroke-miterlimit:10;}
	.st5{fill:#74F500;stroke:#74F500;stroke-width:0.5;stroke-miterlimit:10;}
	.st6{fill:#0826A8;stroke:#0826A8;stroke-width:0.5;stroke-miterlimit:10;}
	.st7{fill:#F5BD18;stroke:#F5BD18;stroke-width:0.5;stroke-miterlimit:10;}
	.st8{stroke:#000000;stroke-width:0.5;stroke-miterlimit:10;}
	.st9{font-size:42px;}
</style>
<g>
	<g>
		<line class="st0" x1="92.48" y1="679.04" x2="1262.48" y2="679.04"/>
		<g>
			<g>
				<line class="st0" x1="92.48" y1="679.04" x2="92.48" y2="666.51"/>
				<line class="st0" x1="287.48" y1="679.04" x2="287.48" y2="666.51"/>
				<line class="st0" x1="482.48" y1="679.04" x2="482.48" y2="666.51"/>
				<line class="st0" x1="677.48" y1="679.04" x2="677.48" y2="666.51"/>
				<line class="st0" x1="872.48" y1="679.04" x2="872.48" y2="666.51"/>
				<line class="st0" x1="1067.48" y1="679.04" x2="1067.48" y2="666.51"/>
				<line class="st0" x1="1262.48" y1="679.04" x2="1262.48" y2="666.51"/>
			</g>
			<g>
			</g>
		</g>
	</g>
	<g>
		<g>
			<text transform="matrix(1 0 0 1 57.7876 696.667)" class="st1 st2">0</text>
			<text transform="matrix(1 0 0 1 41.3721 596.4063)" class="st1 st2">20</text>
			<text transform="matrix(1 0 0 1 41.3721 496.1465)" class="st1 st2">40</text>
			<text transform="matrix(1 0 0 1 41.3721 395.8867)" class="st1 st2">60</text>
			<text transform="matrix(1 0 0 1 41.3721 295.627)" class="st1 st2">80</text>
			<text transform="matrix(1 0 0 1 24.9565 195.3672)" class="st1 st2">100</text>
		</g>
		<line class="st0" x1="92.48" y1="679.04" x2="92.48" y2="177.74"/>
		<g>
			<g>
				<line class="st0" x1="92.48" y1="679.04" x2="1262.48" y2="679.04"/>
				<line class="st0" x1="92.48" y1="578.78" x2="1262.48" y2="578.78"/>
				<line class="st0" x1="92.48" y1="478.52" x2="1262.48" y2="478.52"/>
				<line class="st0" x1="92.48" y1="378.26" x2="1262.48" y2="378.26"/>
				<line class="st0" x1="92.48" y1="278" x2="1262.48" y2="278"/>
				<line class="st0" x1="92.48" y1="177.74" x2="1262.48" y2="177.74"/>
			</g>
			<g>
			</g>
		</g>
	</g>
	<g>
		<g>
			<text transform="matrix(1 0 0 1 1280.7656 696.667)" class="st1 st2">0</text>
			<text transform="matrix(1 0 0 1 1280.7656 596.4063)" class="st1 st2">20</text>
			<text transform="matrix(1 0 0 1 1280.7656 496.1465)" class="st1 st2">40</text>
			<text transform="matrix(1 0 0 1 1280.7656 395.8867)" class="st1 st2">60</text>
			<text transform="matrix(1 0 0 1 1280.7656 295.627)" class="st1 st2">80</text>
			<text transform="matrix(1 0 0 1 1280.7656 195.3672)" class="st1 st2">100</text>
		</g>
		<line class="st0" x1="1262.48" y1="679.04" x2="1262.48" y2="177.74"/>
		<g>
			<g>
				<line class="st0" x1="92.48" y1="679.04" x2="1262.48" y2="679.04"/>
				<line class="st0" x1="92.48" y1="578.78" x2="1262.48" y2="578.78"/>
				<line class="st0" x1="92.48" y1="478.52" x2="1262.48" y2="478.52"/>
				<line class="st0" x1="92.48" y1="378.26" x2="1262.48" y2="378.26"/>
				<line class="st0" x1="92.48" y1="278" x2="1262.48" y2="278"/>
				<line class="st0" x1="92.48" y1="177.74" x2="1262.48" y2="177.74"/>
			</g>
			<g>
			</g>
		</g>
	</g>
	<g>
		<g>
			<g>
				<rect x="119.78" y="538.68" class="st3" width="140.4" height="140.36"/>
				<rect x="314.78" y="485.04" class="st4" width="140.4" height="194"/>
				<rect x="509.78" y="616.88" class="st5" width="140.4" height="62.16"/>
				<rect x="704.78" y="619.89" class="st6" width="140.4" height="59.15"/>
				<rect x="899.78" y="537.18" class="st7" width="140.4" height="141.87"/>
				<rect x="1094.78" y="567.25" class="st8" width="140.4" height="111.79"/>
			</g>
		</g>
	</g>
	<g>
		<g>
		</g>
	</g>
	<g>
		<text transform="matrix(1 0 0 1 1106.7607 722.123)"><tspan x="0" y="0" class="st1 st2">A</tspan><tspan x="18.91" y="0" class="st1 st2">v</tspan><tspan x="33.98" y="0" class="st1 st2">e</tspan><tspan x="50.02" y="0" class="st1 st2">r</tspan><tspan x="60.32" y="0" class="st1 st2">age </tspan><tspan x="17.62" y="38.4" class="st1 st2">22.3%</tspan></text>
		<text transform="matrix(1 0 0 1 872.5459 722.123)"><tspan x="0" y="0" class="st1 st2">G</tspan><tspan x="20.83" y="0" class="st1 st2">esa</tspan><tspan x="64.96" y="0" class="st1 st2">m</tspan><tspan x="91.52" y="0" class="st1 st2">tschule </tspan><tspan x="56.83" y="38.4" class="st1 st2">28.3%</tspan></text>
		<text transform="matrix(1 0 0 1 691.5449 722.123)"><tspan x="0" y="0" class="st1 st2">Gymnasium </tspan><tspan x="42.83" y="38.4" class="st1 st2">11.8%</tspan></text>
		<text transform="matrix(1 0 0 1 505.4248 722.123)"><tspan x="0" y="0" class="st1 st2">R</tspan><tspan x="17.34" y="0" class="st1 st2">ealschule </tspan><tspan x="33.95" y="38.4" class="st1 st2">12.4%</tspan></text>
		<text transform="matrix(1 0 0 1 297.2417 722.123)"><tspan x="0" y="0" class="st1 st2">Hauptschule </tspan><tspan x="47.14" y="38.4" class="st1 st2">38.7%</tspan></text>
		<text transform="matrix(1 0 0 1 101.3135 722.123)"><tspan x="0" y="0" class="st1 st2">Grundschule </tspan><tspan x="59.58" y="38.4" class="st1 st2">28%</tspan></text>
	</g>
</g>
<text transform="matrix(1 0 0 1 130 116)" class="st1 st9">Percentage of Students with Migration Background at Schools</text>
</svg>
