<?xml version="1.0" encoding="utf-8"?>
<!-- Generator: Adobe Illustrator 24.2.1, SVG Export Plug-In . SVG Version: 6.00 Build 0)  -->
<svg version="1.1" id="Layer_1" xmlns="http://www.w3.org/2000/svg" xmlns:xlink="http://www.w3.org/1999/xlink" x="0px" y="0px"
	 viewBox="0 0 1366 768" style="enable-background:new 0 0 1366 768;" xml:space="preserve">
<style type="text/css">
	.st0{font-family:'MyriadPro-Regular';}
	.st1{font-size:33px;}
	.st2{fill:none;stroke:#0826A8;stroke-miterlimit:10;}
	.st3{fill:#F5BD18;stroke:#000000;stroke-width:0.5;stroke-miterlimit:10;}
	.st4{fill:#F23314;stroke:#000000;stroke-width:0.5;stroke-miterlimit:10;}
	.st5{fill:#74F500;stroke:#000000;stroke-width:0.5;stroke-miterlimit:10;}
	.st6{fill:#0826A8;stroke:#0826A8;stroke-width:0.5;stroke-miterlimit:10;}
	.st7{font-size:29px;}
</style>
<g>
	<g>
		<g>
			<text transform="matrix(1 0 0 1 186.4033 748.6406)" class="st0 st1">0</text>
			<text transform="matrix(1 0 0 1 396.3896 748.6406)" class="st0 st1">20</text>
			<text transform="matrix(1 0 0 1 614.8403 748.6406)" class="st0 st1">40</text>
			<text transform="matrix(1 0 0 1 833.291 748.6406)" class="st0 st1">60</text>
			<text transform="matrix(1 0 0 1 1051.7412 748.6406)" class="st0 st1">80</text>
			<text transform="matrix(1 0 0 1 1261.7275 748.6406)" class="st0 st1">100</text>
		</g>
		<line class="st2" x1="194.87" y1="707.73" x2="1287.12" y2="707.73"/>
		<g>
			<g>
				<line class="st2" x1="194.87" y1="707.73" x2="194.87" y2="231.64"/>
				<line class="st2" x1="413.32" y1="707.73" x2="413.32" y2="231.64"/>
				<line class="st2" x1="631.77" y1="707.73" x2="631.77" y2="231.64"/>
				<line class="st2" x1="850.22" y1="707.73" x2="850.22" y2="231.64"/>
				<line class="st2" x1="1068.67" y1="707.73" x2="1068.67" y2="231.64"/>
				<line class="st2" x1="1287.12" y1="707.73" x2="1287.12" y2="231.64"/>
			</g>
			<g>
				<line class="st2" x1="249.48" y1="707.73" x2="249.48" y2="231.64"/>
				<line class="st2" x1="304.09" y1="707.73" x2="304.09" y2="231.64"/>
				<line class="st2" x1="358.71" y1="707.73" x2="358.71" y2="231.64"/>
				<line class="st2" x1="467.93" y1="707.73" x2="467.93" y2="231.64"/>
				<line class="st2" x1="522.54" y1="707.73" x2="522.54" y2="231.64"/>
				<line class="st2" x1="577.16" y1="707.73" x2="577.16" y2="231.64"/>
				<line class="st2" x1="686.38" y1="707.73" x2="686.38" y2="231.64"/>
				<line class="st2" x1="740.99" y1="707.73" x2="740.99" y2="231.64"/>
				<line class="st2" x1="795.61" y1="707.73" x2="795.61" y2="231.64"/>
				<line class="st2" x1="904.83" y1="707.73" x2="904.83" y2="231.64"/>
				<line class="st2" x1="959.44" y1="707.73" x2="959.44" y2="231.64"/>
				<line class="st2" x1="1014.06" y1="707.73" x2="1014.06" y2="231.64"/>
				<line class="st2" x1="1123.28" y1="707.73" x2="1123.28" y2="231.64"/>
				<line class="st2" x1="1177.9" y1="707.73" x2="1177.9" y2="231.64"/>
				<line class="st2" x1="1232.51" y1="707.73" x2="1232.51" y2="231.64"/>
			</g>
		</g>
	</g>
	<g>
		<line class="st2" x1="194.87" y1="707.73" x2="194.87" y2="231.64"/>
		<g>
			<g>
				<line class="st2" x1="194.87" y1="628.38" x2="1287.12" y2="628.38"/>
				<line class="st2" x1="194.87" y1="469.68" x2="1287.12" y2="469.68"/>
				<line class="st2" x1="194.87" y1="310.99" x2="1287.12" y2="310.99"/>
			</g>
			<g>
			</g>
		</g>
	</g>
	<g>
		<g>
			<rect x="1014.06" y="183.77" class="st3" width="68.27" height="44.63"/>
			<g>
				<rect x="1090.52" y="253.86" class="st3" width="196.61" height="114.26"/>
				<rect x="981.29" y="412.55" class="st3" width="305.83" height="114.26"/>
				<rect x="948.52" y="571.25" class="st3" width="338.6" height="114.26"/>
			</g>
		</g>
		<g>
			<rect x="740.99" y="183.77" class="st4" width="68.27" height="44.63"/>
			<g>
				<rect x="1057.75" y="253.86" class="st4" width="32.77" height="114.26"/>
				<rect x="904.83" y="412.55" class="st4" width="76.46" height="114.26"/>
				<rect x="708.23" y="571.25" class="st4" width="240.3" height="114.26"/>
			</g>
		</g>
		<g>
			<rect x="467.93" y="183.77" class="st5" width="68.27" height="44.63"/>
			<g>
				<rect x="861.14" y="253.86" class="st5" width="196.61" height="114.26"/>
				<rect x="522.54" y="412.55" class="st5" width="382.29" height="114.26"/>
				<rect x="347.78" y="571.25" class="st5" width="360.44" height="114.26"/>
			</g>
		</g>
		<g>
			<rect x="194.87" y="183.77" class="st6" width="68.27" height="44.63"/>
			<g>
				<rect x="194.87" y="253.86" class="st6" width="666.27" height="114.26"/>
				<rect x="194.87" y="412.55" class="st6" width="327.68" height="114.26"/>
				<rect x="194.87" y="571.25" class="st6" width="152.92" height="114.26"/>
			</g>
		</g>
	</g>
	<g>
		<g>
		</g>
		<g>
		</g>
		<g>
		</g>
		<g>
		</g>
	</g>
	<g>
		<g>
		</g>
		<text transform="matrix(1 0 0 1 1090.8564 222.8193)"><tspan x="0" y="0" class="st0 st1">G</tspan><tspan x="21.48" y="0" class="st0 st1">esa</tspan><tspan x="66.99" y="0" class="st0 st1">m</tspan><tspan x="94.38" y="0" class="st0 st1">tschule</tspan></text>
		<text transform="matrix(1 0 0 1 817.793 222.8193)" class="st0 st1">Hauptschule</text>
		<text transform="matrix(1 0 0 1 544.73 222.8193)"><tspan x="0" y="0" class="st0 st1">R</tspan><tspan x="17.89" y="0" class="st0 st1">ealschule</tspan></text>
		<text transform="matrix(1 0 0 1 271.667 222.8193)" class="st0 st1">Gymnasium</text>
	</g>
	<g>
		<text transform="matrix(1 0 0 1 85.9883 645.1162)"><tspan x="0" y="0" class="st0 st7">L</tspan><tspan x="13.28" y="0" class="st0 st7">o</tspan><tspan x="29" y="0" class="st0 st7">w</tspan><tspan x="50.05" y="0" class="st0 st7">est </tspan><tspan x="-36.08" y="34.8" class="st0 st7">E</tspan><tspan x="-21.92" y="34.8" class="st0 st7">duc</tspan><tspan x="23.4" y="34.8" class="st0 st7">a</tspan><tspan x="37.27" y="34.8" class="st0 st7">tion </tspan><tspan x="28.97" y="69.6" class="st0 st7">L</tspan><tspan x="42.25" y="69.6" class="st0 st7">e</tspan><tspan x="56.78" y="69.6" class="st0 st7">v</tspan><tspan x="70.44" y="69.6" class="st0 st7">el</tspan></text>
		<text transform="matrix(1 0 0 1 70.3286 486.4199)"><tspan x="0" y="0" class="st0 st7">M</tspan><tspan x="23.49" y="0" class="st0 st7">edium </tspan><tspan x="-20.42" y="34.8" class="st0 st7">E</tspan><tspan x="-6.26" y="34.8" class="st0 st7">duc</tspan><tspan x="39.06" y="34.8" class="st0 st7">a</tspan><tspan x="52.92" y="34.8" class="st0 st7">tion </tspan><tspan x="44.63" y="69.6" class="st0 st7">L</tspan><tspan x="57.91" y="69.6" class="st0 st7">e</tspan><tspan x="72.44" y="69.6" class="st0 st7">v</tspan><tspan x="86.1" y="69.6" class="st0 st7">el</tspan></text>
		<text transform="matrix(1 0 0 1 77.7529 327.7236)"><tspan x="0" y="0" class="st0 st7">H</tspan><tspan x="19.2" y="0" class="st0 st7">ighest </tspan><tspan x="-27.84" y="34.8" class="st0 st7">E</tspan><tspan x="-13.69" y="34.8" class="st0 st7">duc</tspan><tspan x="31.64" y="34.8" class="st0 st7">a</tspan><tspan x="45.5" y="34.8" class="st0 st7">tion </tspan><tspan x="37.21" y="69.6" class="st0 st7">L</tspan><tspan x="50.49" y="69.6" class="st0 st7">e</tspan><tspan x="65.02" y="69.6" class="st0 st7">v</tspan><tspan x="78.68" y="69.6" class="st0 st7">el</tspan></text>
	</g>
</g>
<text transform="matrix(1 0 0 1 306 117)" class="st0 st1">Schools attended based on the Parents’  Education Level</text>
</svg>
